<?xml version="1.0" encoding="UTF-8"?>
<svg version="1.1" xmlns="http://www.w3.org/2000/svg" width="751" height="556">

<path d="M0 0 C0.4021875 0.8353125 0.4021875 0.8353125 0.8125 1.6875 C6.5551766 12.87060707 15.24403898 18.90556849 25.875 25.1875 C26.44863281 25.54263672 27.02226563 25.89777344 27.61328125 26.26367188 C32.0914972 28.89175629 35.82351602 29.61887426 41 30 C40.67 30.66 40.34 31.32 40 32 C39.34 31.67 38.68 31.34 38 31 C38 31.66 38 32.32 38 33 C37.34 33 36.68 33 36 33 C35.86271484 33.76570313 35.86271484 33.76570313 35.72265625 34.546875 C34.70920442 37.98713312 33.06473625 41.06954508 31.4375 44.25 C30.90829956 45.31118042 30.90829956 45.31118042 30.3684082 46.39379883 C28.59431952 49.93922688 26.77309721 53.43391657 24.796875 56.87109375 C18.99483304 67.2155936 16.21911883 78.06951583 16 90 C16.33 90.66 16.66 91.32 17 92 C18.7655752 104.79287673 19.29813789 117.52098247 19.20581055 130.42163086 C19.18728831 133.09303175 19.18530386 135.76408766 19.18554688 138.43554688 C19.15198734 152.49333345 19.15198734 152.49333345 18.3046875 159.38671875 C17.69464256 165.0895545 19.62005559 167.91451857 22.89453125 172.4765625 C27.27414262 177.72559579 31.0241086 182.01034067 38 183 C39.77168753 180.79234747 41.54246535 178.58397741 43.3125 176.375 C43.85720947 175.69566406 44.40191895 175.01632812 44.96313477 174.31640625 C47.59257612 171.03141389 50.21192525 167.74030255 52.7890625 164.4140625 C58.10184873 157.55964133 63.58876574 150.91596347 69.30664062 144.39453125 C72.43434335 140.82426416 75.47494264 137.21006719 78.4375 133.5 C83.22708931 127.58137306 88.44078938 122.08757131 93.6640625 116.5546875 C96.29008296 113.77049068 98.84838243 110.93761654 101.375 108.0625 C111.08658984 97.22755462 121.37886945 86.78627901 133 78 C133.91265625 77.30519531 134.8253125 76.61039062 135.765625 75.89453125 C138.4768872 73.87623132 141.2202065 71.92258846 144 70 C144.76441406 69.46503906 145.52882812 68.93007812 146.31640625 68.37890625 C155.56540162 62.35375698 167.03042808 58.37608311 177.88671875 56.40795898 C179.25169639 56.14445649 180.61031067 55.8441679 181.95727539 55.50024414 C188.15068008 53.92769714 194.06687455 53.66647483 200.4375 53.6875 C201.41009766 53.67138672 202.38269531 53.65527344 203.38476562 53.63867188 C213.51437059 53.63190527 221.80386333 56.02365034 230 62 C230.61875 62.43054688 231.2375 62.86109375 231.875 63.3046875 C241.55028783 70.68626485 243.59402808 82.7193685 246 94 C246.14179688 94.65806641 246.28359375 95.31613281 246.4296875 95.99414062 C247.41273303 100.64505884 248.24096398 105.30881497 249 110 C249.20753906 111.23492187 249.41507812 112.46984375 249.62890625 113.7421875 C251.21757269 124.48510895 251.21195143 135.28931947 251.25 146.125 C251.25790054 147.26841858 251.25790054 147.26841858 251.26596069 148.43493652 C251.34105322 162.51147525 250.63792211 176.47292206 246.375 190 C246.11702637 190.83394287 245.85905273 191.66788574 245.59326172 192.52709961 C240.96397431 206.86150372 233.64744106 222.06541792 222 232 C221.34 232 220.68 232 220 232 C220 232.66 220 233.32 220 234 C217.77911754 235.61815634 215.57229862 237.10415176 213.25 238.5625 C212.61578125 238.97435547 211.9815625 239.38621094 211.328125 239.81054688 C208.24478007 241.77296745 205.57085342 243.24898718 202 244 C202.35191406 243.55011719 202.70382812 243.10023438 203.06640625 242.63671875 C204.74578943 240.44869732 206.37683994 238.23004956 208 236 C208.54140625 235.27167969 209.0828125 234.54335938 209.640625 233.79296875 C219.69681942 219.24908009 225.16549149 202.84571484 225.3125 185.3125 C225.35600586 183.6119043 225.35600586 183.6119043 225.40039062 181.87695312 C225.4634797 173.45698869 224.5391499 165.81855647 218.625 159.4375 C218.08875 158.633125 217.5525 157.82875 217 157 C217.40728023 154.96359884 217.84027327 152.92890826 218.40234375 150.9296875 C219.19203905 147.05863209 219.28360341 143.31683462 219.3125 139.375 C219.32958008 138.65860352 219.34666016 137.94220703 219.36425781 137.20410156 C219.36132002 130.8320209 218.01190469 126.06097554 213.4375 121.375 C210.03903191 117.61241033 210.11303036 113.0604118 209.51953125 108.20703125 C208.79504758 103.73484255 207.4430231 100.80824189 205 97 C201.15143181 94.61341356 197.41965349 94.25423254 193 95 C178.93543656 100.44843449 167.61972591 113.73441069 157 124 C156.1759668 124.79535156 155.35193359 125.59070313 154.50292969 126.41015625 C142.62715553 137.92550546 132.89267935 148.93150222 124.48925781 163.17504883 C120.67004163 169.63727331 116.53524168 175.86422925 112.31347656 182.06884766 C110.96146356 184.05665859 109.61751195 186.04978372 108.2734375 188.04296875 C102.47251107 196.60468183 96.40573657 204.88247836 90 213 C89.34644531 213.84820312 88.69289062 214.69640625 88.01953125 215.5703125 C84.203233 220.46461665 80.1915705 225.18083951 76.0625 229.8125 C75.59666504 230.35197266 75.13083008 230.89144531 74.65087891 231.44726562 C68.44382706 238.28032783 60.26797455 241.60535316 51.6875 244.5625 C50.8301123 244.85842041 49.97272461 245.15434082 49.08935547 245.45922852 C34.47379589 250.3270862 15.52859992 256.25760842 0.8125 249.625 C-10.54684735 243.15333996 -18.64302308 233.56331932 -26 223 C-26.39944824 222.45359863 -26.79889648 221.90719727 -27.21044922 221.34423828 C-34.15270894 211.71722101 -35.75597667 202.69095429 -34 191 C-32.9609375 187.46875 -32.9609375 187.46875 -32 185 C-32.66 185 -33.32 185 -34 185 C-34.24234375 185.67675781 -34.4846875 186.35351562 -34.734375 187.05078125 C-36.26903197 190.62691093 -38.22050453 193.87853999 -40.25 197.1875 C-41.40504555 199.08909938 -42.55983963 200.99084903 -43.71386719 202.89306641 C-44.61799635 204.37420434 -45.53091269 205.84999659 -46.45019531 207.32177734 C-50.21898043 213.43544966 -53.33145937 219.69229142 -56.25 226.25 C-56.683125 227.20390625 -57.11625 228.1578125 -57.5625 229.140625 C-59.6146863 233.70103901 -61.55143359 238.20363567 -63 243 C-63.33 243 -63.66 243 -64 243 C-64.12239583 241.40885417 -64.24479167 239.81770833 -64.3671875 238.2265625 C-64.44718994 237.18733643 -64.52719238 236.14811035 -64.60961914 235.07739258 C-64.78898898 232.74393457 -64.96784932 230.41043735 -65.14624023 228.0769043 C-65.6001805 222.14792899 -66.06071255 216.21971298 -66.54296875 210.29296875 C-66.6301416 209.20483887 -66.71731445 208.11670898 -66.80712891 206.99560547 C-66.96883209 204.98003558 -67.1334995 202.96469946 -67.30224609 200.94970703 C-68.85750771 181.3834073 -69.30379444 161.73768629 -69.44468784 142.11604214 C-69.47025878 138.60637382 -69.5097742 135.09813747 -69.58300781 131.58911133 C-69.92767902 114.63360941 -69.35250308 99.62439688 -62 84 C-61.67550873 83.28672546 -61.35101746 82.57345093 -61.01669312 81.83856201 C-55.24844793 69.16818855 -48.03720173 60.96086945 -36.62109375 52.96484375 C-33.96267396 51.07340607 -33.96267396 51.07340607 -31.78515625 48.75390625 C-30 47 -30 47 -28 47 C-26.68506369 43.76891128 -25.4652702 40.52681964 -24.3359375 37.2265625 C-11.38307881 0 -11.38307881 0 0 0 Z " fill="#24AE4B" transform="translate(69,150)"/>
<path d="M0 0 C2.77866758 2.61844542 4.84752932 5.10684096 6.734375 8.421875 C7.22212402 9.27458984 7.70987305 10.12730469 8.21240234 11.00585938 C8.71980957 11.91142578 9.2272168 12.81699219 9.75 13.75 C10.27932129 14.68650391 10.80864258 15.62300781 11.35400391 16.58789062 C15.84497954 24.59550078 20.05440555 32.71134885 24 41 C24.56589844 42.1859375 25.13179687 43.371875 25.71484375 44.59375 C27.88456753 49.21966477 29.97953353 53.78539274 31.625 58.625 C32.80915575 61.93302546 32.80915575 61.93302546 34.625 64.1875 C38.07454822 65.3676086 40.41154908 64.31212095 43.78125 63.15234375 C46.46318027 61.75943982 48.04579699 60.30917705 50 58 C50.62644555 55.5960916 50.62644555 55.5960916 50.59008789 52.95947266 C50.6201442 51.95808258 50.6502005 50.9566925 50.6811676 49.92495728 C50.69485886 48.848862 50.70855011 47.77276672 50.72265625 46.6640625 C50.75427353 45.55195404 50.78589081 44.43984558 50.81846619 43.29403687 C50.9181064 39.73788041 50.99256452 36.18185609 51.0625 32.625 C51.13779268 29.07541924 51.21888873 25.52640654 51.31724548 21.97738647 C51.37800973 19.76957545 51.42540513 17.56134557 51.45777893 15.35293579 C51.60307724 9.91078928 51.76774537 5.61640079 55 1 C57.6875 0.125 57.6875 0.125 60 0 C59.0409375 1.175625 59.0409375 1.175625 58.0625 2.375 C55.40908645 5.75207179 54.87501135 7.25415314 54.88647461 11.44970703 C54.88655014 12.37051056 54.88662567 13.29131409 54.88670349 14.24002075 C54.89186478 15.23589203 54.89702606 16.23176331 54.90234375 17.2578125 C54.9037587 18.27600067 54.90517365 19.29418884 54.90663147 20.3432312 C54.912241 23.60385035 54.92479512 26.86440151 54.9375 30.125 C54.94251377 32.33203026 54.94707689 34.53906159 54.95117188 36.74609375 C54.96221352 42.16408581 54.97896095 47.58203805 55 53 C55.81275139 52.58815208 55.81275139 52.58815208 56.641922 52.16798401 C57.35668198 51.80776657 58.07144196 51.44754913 58.80786133 51.07641602 C59.86811272 50.5408181 59.86811272 50.5408181 60.94978333 49.99440002 C68.14973893 46.50226375 75.11160181 46.11762884 83 47 C87.82764943 48.74817389 91.48479812 51.28890451 95 55 C94.505 55.99 94.505 55.99 94 57 C92.56770833 55.76302083 91.13541667 54.52604167 89.703125 53.2890625 C83.54544845 48.62843575 76.3763036 49.34736408 69 50 C65.74566265 50.97970889 62.90198733 52.23836 60 54 C59.84652757 65.53235695 64.71664578 71.71697695 72.4375 79.8125 C78.09914506 85.24344984 83.79317119 90.14397945 92 90 C95.13941191 88.91328049 98.06486993 87.55076033 101 86 C100.40800932 89.40207302 99.22514305 91.08317439 96.9375 93.625 C93.90512892 97.55612203 93.34881324 100.41623995 93.3984375 105.3125 C94.10714788 108.47868663 95.43199523 110.93706153 96.92626953 113.79980469 C102.2155759 124.63819236 104.5613909 136.83416905 104.6875 148.8125 C104.70651367 149.71242676 104.72552734 150.61235352 104.74511719 151.53955078 C104.63455134 157.81475078 103.05602218 162.16981733 99 167 C93.34891518 171.4978022 89.1539057 172.48501056 82 172 C76.15374454 169.94868229 71.21617444 166.94625576 66.5625 162.859375 C58.73302004 156.41437625 53.00496724 156.63676832 43.22558594 157.15307617 C34.98833479 157.42113158 30.64325108 155.37151701 23.94921875 150.81640625 C20.951197 148.96994252 19.50667204 148.53932986 16.0625 148.5 C4.28343155 148.20891923 -8.10466752 137.82821294 -16.05859375 129.96484375 C-21.81220745 123.7566826 -24.65447317 117.92234333 -24.34375 109.3515625 C-22.79817762 98.77844238 -8.66023531 90.21003674 -0.66455078 84.22460938 C6.32997026 79.07874291 13.4250812 75.8485531 21.64404297 73.1784668 C25.48166371 71.88106845 25.48166371 71.88106845 28.46875 69.2578125 C30.15239441 62.10232375 28.13876034 56.9396676 25.25 50.5 C24.85240479 49.59580322 24.45480957 48.69160645 24.04516602 47.76000977 C17.61448928 33.39344719 10.69865414 18.91057381 1.328125 6.20703125 C0 4 0 4 0 0 Z " fill="#25AB4B" transform="translate(93,31)"/>
<path d="M0 0 C3.17844137 1.36769295 4.26834346 3.90348764 5.93359375 6.83203125 C7.0190261 10.109202 7.03700818 13.14521931 6.99609375 16.58203125 C6.98707031 17.566875 6.97804688 18.55171875 6.96875 19.56640625 C6.95134766 20.68789063 6.95134766 20.68789063 6.93359375 21.83203125 C7.54847656 22.10917969 8.16335938 22.38632812 8.796875 22.671875 C12.07109337 24.44964987 13.20611853 26.55578515 14.93359375 29.83203125 C15.82935162 32.89703408 16.51066334 35.67188825 15.93359375 38.83203125 C13.7734375 41.23828125 13.7734375 41.23828125 10.93359375 43.83203125 C9.08838619 45.80184335 7.25454105 47.77771074 5.43359375 49.76953125 C4.97339844 50.26904297 4.51320313 50.76855469 4.0390625 51.28320312 C1.73051435 53.80309723 -0.51076025 56.35219217 -2.671875 59 C-4.64905791 61.33843003 -6.53458075 63.26247494 -8.87890625 65.20703125 C-11.68735866 67.59631166 -14.31416245 70.05819749 -16.87890625 72.70703125 C-20.71635085 76.59673677 -24.83833377 80.00896212 -29.09765625 83.42578125 C-31.65668158 85.49993862 -34.16459418 87.62111552 -36.65893555 89.7722168 C-43.87052568 95.97707646 -51.38594934 101.70604382 -59.04785156 107.34130859 C-61.03961054 108.81224235 -63.01896403 110.29854232 -64.99609375 111.7890625 C-72.40485341 117.34586727 -79.87481429 122.46392319 -88.06640625 126.83203125 C-89.20464844 127.44949219 -90.34289062 128.06695312 -91.515625 128.703125 C-96.98237193 131.41229218 -102.74514513 133.32811096 -108.51074219 135.29638672 C-110.43353748 135.95433867 -112.35156407 136.62499755 -114.26953125 137.296875 C-121.14497084 139.6625408 -127.87852311 141.68893341 -135.06640625 142.83203125 C-134.07640625 141.84203125 -134.07640625 141.84203125 -133.06640625 140.83203125 C-132.37804687 140.13980469 -132.37804687 140.13980469 -131.67578125 139.43359375 C-130.55058215 138.31385678 -129.41417437 137.20532148 -128.26953125 136.10546875 C-122.71804067 130.70941991 -117.84019097 124.92166688 -113.06640625 118.83203125 C-112.66035156 118.31833984 -112.25429687 117.80464844 -111.8359375 117.27539062 C-106.20596822 110.1123374 -100.95244769 102.71837023 -95.875 95.15625 C-95.41487518 94.47174774 -94.95475037 93.78724548 -94.48068237 93.08200073 C-92.15413192 89.61616244 -89.83936397 86.14313816 -87.54003906 82.65917969 C-81.86376666 74.11497258 -76.11316923 67.05564601 -68.00390625 60.70703125 C-62.84859453 56.56005873 -58.00064569 52.15240887 -53.18920898 47.61279297 C-50.29905713 44.88911183 -47.37923028 42.23194855 -44.359375 39.65234375 C-38.8170956 34.83372294 -33.72091949 29.55658317 -28.56640625 24.33203125 C-16.84316289 12.44949438 -16.84316289 12.44949438 -10.77832031 7.30078125 C-8.34546708 5.21349588 -6.02886403 3.0099037 -3.70703125 0.80078125 C-2.06640625 -0.16796875 -2.06640625 -0.16796875 0 0 Z " fill="#2B9E47" transform="translate(271.06640625,247.16796875)"/>
<path d="M0 0 C7.19409806 -0.35933823 12.88181727 0.78558343 19.6875 3.0625 C20.65067139 3.383396 21.61384277 3.70429199 22.60620117 4.03491211 C25.41542112 4.99435864 28.20950189 5.98752753 31 7 C32.10456543 7.39251953 32.10456543 7.39251953 33.23144531 7.79296875 C44.24881171 11.86987966 48.76918723 18.03227094 54 28 C54.47695313 28.8353125 54.95390625 29.670625 55.4453125 30.53125 C59.29479331 37.60073676 61.71885787 45.30150824 64.28125 52.90527344 C64.9184488 54.76232702 65.59691111 56.60510854 66.28125 58.4453125 C75.13260449 82.90001626 81.01299539 109.23101141 71 134 C70.62746094 134.95519531 70.25492187 135.91039062 69.87109375 136.89453125 C65.91143323 145.87620024 58.40168442 153.05783269 50 158 C47.80078125 157.6171875 47.80078125 157.6171875 46 157 C46.38671875 156.52691406 46.7734375 156.05382812 47.171875 155.56640625 C55.73703371 144.69035076 57.79913228 134.73323626 57 121 C55.60085257 112.08339945 51.77671615 102.97442474 46.3125 95.77734375 C45 94 45 94 45 92 C44.34 92 43.68 92 43 92 C40.8125 89.8125 40.8125 89.8125 39 87 C39.19345622 84.22712751 39.76542777 82.46914446 41 80 C41.61627965 73.99885058 41.64252657 68.25504678 38.609375 62.9140625 C35.77167304 59.53912571 32.20276025 57.19940408 28.55859375 54.76171875 C23.25195524 51.10783483 23.25195524 51.10783483 22.56762695 48.09887695 C22.54144287 47.40238037 22.51525879 46.70588379 22.48828125 45.98828125 C22.43510742 44.85229492 22.43510742 44.85229492 22.38085938 43.69335938 C22.35830078 42.90767578 22.33574219 42.12199219 22.3125 41.3125 C22.27833984 40.51521484 22.24417969 39.71792969 22.20898438 38.89648438 C22.12661896 36.93148096 22.06162933 34.96576304 22 33 C20.68 32.67 19.36 32.34 18 32 C17.44570313 32.6496875 16.89140625 33.299375 16.3203125 33.96875 C15.59585937 34.8040625 14.87140625 35.639375 14.125 36.5 C13.40570313 37.3353125 12.68640625 38.170625 11.9453125 39.03125 C10.98238281 40.00578125 10.98238281 40.00578125 10 41 C9.34 41 8.68 41 8 41 C7.87044922 40.01 7.87044922 40.01 7.73828125 39 C5.88128691 25.91585639 3.28404294 12.80235934 0 0 Z " fill="#2B9C47" transform="translate(311,224)"/>
<path d="M0 0 C3.62454693 2.38022242 6.81567246 5.06358724 10 8 C11.02480469 8.92232422 11.02480469 8.92232422 12.0703125 9.86328125 C17.43128336 14.92143576 20.34080699 19.678894 20.56933594 27.16748047 C20.56708008 27.89596191 20.56482422 28.62444336 20.5625 29.375 C20.5615332 30.12797363 20.56056641 30.88094727 20.55957031 31.65673828 C20.38948012 37.02389935 19.42847672 40.50948235 15.703125 44.5546875 C8.2936567 50.84253904 1.4504751 53.7836666 -8.3984375 53.44921875 C-20.81245905 51.90083211 -33.94916881 47.43120064 -41.9375 37.4375 C-42.99288293 35.98278299 -44.01456646 34.50298219 -45 33 C-45.54527344 32.20335937 -46.09054688 31.40671875 -46.65234375 30.5859375 C-49.10095303 25.88744665 -48.92305417 21.13699713 -48 16 C-46.17041486 12.71783515 -43.81136688 10.46127213 -41 8 C-40.31679687 7.360625 -39.63359375 6.72125 -38.9296875 6.0625 C-27.03908128 -4.78824332 -14.67781942 -6.84070696 0 0 Z " fill="#080808" transform="translate(120,121)"/>
<path d="M0 0 C4.60613527 4.52770262 6.07468793 8.5019962 7.3125 14.75 C7.48072266 15.51699219 7.64894531 16.28398437 7.82226562 17.07421875 C9 22.54467474 9 22.54467474 9 25 C9.721875 25.04125 10.44375 25.0825 11.1875 25.125 C15.20024334 26.37340904 16.59881991 28.62536853 19 32 C21.80432422 37.80475503 21.7720367 43.68129185 21 50 C19.91413531 52.55386294 18.62237374 54.74353586 17.14453125 57.0859375 C15.82430306 59.09396432 15.82430306 59.09396432 15.1875 62.0625 C16.33054416 66.19504426 18.95799285 68.06586492 22.01953125 70.96484375 C27.59223377 76.6914276 27.46331631 83.66306402 27.42675781 91.22070312 C27.06161387 102.75525012 23.54382253 113.46745741 19 124 C18.49243026 125.37222373 17.99208957 126.74714919 17.5 128.125 C16.44832111 130.92189737 15.3164346 133.66220764 14.0625 136.375 C13.76472656 137.02210938 13.46695312 137.66921875 13.16015625 138.3359375 C11.72378146 140.39619225 10.29261347 141.05232261 8 142 C8 142.66 8 143.32 8 144 C5.77911754 145.61815634 3.57229862 147.10415176 1.25 148.5625 C0.61578125 148.97435547 -0.0184375 149.38621094 -0.671875 149.81054688 C-3.75521993 151.77296745 -6.42914658 153.24898718 -10 154 C-9.47212891 153.32517578 -9.47212891 153.32517578 -8.93359375 152.63671875 C-7.25421057 150.44869732 -5.62316006 148.23004956 -4 146 C-3.45859375 145.27167969 -2.9171875 144.54335938 -2.359375 143.79296875 C7.69681942 129.24908009 13.16549149 112.84571484 13.3125 95.3125 C13.35600586 93.6119043 13.35600586 93.6119043 13.40039062 91.87695312 C13.4634797 83.45698869 12.5391499 75.81855647 6.625 69.4375 C6.08875 68.633125 5.5525 67.82875 5 67 C5.40728023 64.96359884 5.84027327 62.92890826 6.40234375 60.9296875 C7.19203905 57.05863209 7.28360341 53.31683462 7.3125 49.375 C7.32958008 48.65860352 7.34666016 47.94220703 7.36425781 47.20410156 C7.36132002 40.8320209 6.01190469 36.06097554 1.4375 31.375 C-1.96009788 27.61337377 -1.88955819 23.06453468 -2.47265625 18.2109375 C-3.19705468 13.80015598 -4.66630795 10.79224958 -7 7 C-7.66 6.67 -8.32 6.34 -9 6 C-7.16491382 0.88797422 -5.69204367 -0.92661176 0 0 Z " fill="#12AA5C" transform="translate(281,240)"/>
<path d="M0 0 C4.98220448 4.6572781 7.85969926 9.99573426 8.1796875 16.84765625 C8.67349189 21.13387835 10.3469329 22.8951761 13.5625 25.62695312 C14.160625 26.10068359 14.75875 26.57441406 15.375 27.0625 C20.14872737 30.92421614 23.2439424 33.872886 25 40 C25.25694515 44.27693649 24.97592557 48.52192638 24.70703125 52.79296875 C24.45535177 58.24926982 24.45535177 58.24926982 27.31640625 62.77734375 C28.20199219 63.51082031 29.08757812 64.24429688 30 65 C31.66015625 67.68359375 31.66015625 67.68359375 33.0625 70.4375 C34.67832795 73.54038813 36.25386494 76.3666938 38.25 79.25 C41.83511913 84.88375864 42.36197337 90.7534815 42.3125 97.25 C42.30730347 98.36544189 42.30730347 98.36544189 42.30200195 99.50341797 C42.18076333 105.68859722 41.12683192 111.17605839 39 117 C38.608125 118.2375 38.21625 119.475 37.8125 120.75 C35.33654358 125.18964599 31.97932409 127.91430531 28 131 C27.33871094 131.58265625 26.67742187 132.1653125 25.99609375 132.765625 C24 134 24 134 21.75 133.6875 C20.88375 133.3471875 20.88375 133.3471875 20 133 C20.38671875 132.52691406 20.7734375 132.05382812 21.171875 131.56640625 C29.73703371 120.69035076 31.79913228 110.73323626 31 97 C29.60085257 88.08339945 25.77671615 78.97442474 20.3125 71.77734375 C19 70 19 70 19 68 C18.34 68 17.68 68 17 68 C14.8125 65.8125 14.8125 65.8125 13 63 C13.19345622 60.22712751 13.76542777 58.46914446 15 56 C15.61627965 49.99885058 15.64252657 44.25504678 12.609375 38.9140625 C9.77167304 35.53912571 6.20276025 33.19940408 2.55859375 30.76171875 C-2.74804476 27.10783483 -2.74804476 27.10783483 -3.43237305 24.09887695 C-3.45855713 23.40238037 -3.48474121 22.70588379 -3.51171875 21.98828125 C-3.54716797 21.23095703 -3.58261719 20.47363281 -3.61914062 19.69335938 C-3.64169922 18.90767578 -3.66425781 18.12199219 -3.6875 17.3125 C-3.72166016 16.51521484 -3.75582031 15.71792969 -3.79101562 14.89648438 C-3.87338104 12.93148096 -3.93837067 10.96576304 -4 9 C-5.32 8.67 -6.64 8.34 -8 8 C-8.55429687 8.6496875 -9.10859375 9.299375 -9.6796875 9.96875 C-10.40414063 10.8040625 -11.12859375 11.639375 -11.875 12.5 C-12.59429687 13.3353125 -13.31359375 14.170625 -14.0546875 15.03125 C-14.69664062 15.6809375 -15.33859375 16.330625 -16 17 C-16.66 17 -17.32 17 -18 17 C-19.85648484 5.47291684 -19.85648484 5.47291684 -17.87109375 2.05859375 C-12.22003241 -2.68603169 -6.57839017 -2.56545449 0 0 Z " fill="#159E5A" transform="translate(337,248)"/>
<path d="M0 0 C1.2684375 0.7425 1.2684375 0.7425 2.5625 1.5 C1.2425 4.8 -0.0775 8.1 -1.4375 11.5 C-2.7575 11.17 -4.0775 10.84 -5.4375 10.5 C-12.20609105 9.01239757 -17.8630477 8.87021908 -24.4375 11.5 C-25.38021002 14.75639659 -25.38021002 14.75639659 -25.4375 18.5 C-22.07085099 23.73700958 -16.87551167 25.03857279 -11.2578125 27.25390625 C-6.5748962 29.32295098 -4.24334354 31.81505442 -2.0625 36.375 C-0.80433327 42.66583367 -2.53447827 47.90131524 -5.4375 53.5 C-9.92197726 59.20751652 -16.31146317 62.7063223 -23.40234375 64.0703125 C-32.12818186 64.94626536 -40.74374858 65.15674428 -48.4375 60.5 C-45.9625 55.55 -45.9625 55.55 -43.4375 50.5 C-41.7875 50.83 -40.1375 51.16 -38.4375 51.5 C-31.51083313 52.74484385 -25.02275667 53.63583651 -18.4375 50.5 C-16.83010542 48.86954287 -16.83010542 48.86954287 -16.4375 46.5 C-16.74876713 42.81796085 -16.74876713 42.81796085 -17.4375 39.5 C-18.13746094 39.22800781 -18.83742188 38.95601563 -19.55859375 38.67578125 C-22.59089151 37.43735299 -25.54603718 36.10286272 -28.5 34.6875 C-29.52222656 34.20667969 -30.54445313 33.72585938 -31.59765625 33.23046875 C-35.82185604 30.65643779 -37.8929638 27.73112531 -39.875 23.25 C-40.81862499 16.95916673 -38.71867057 12.51881423 -35.375 7.25 C-27.30659684 -1.60797166 -10.90662358 -4.76743134 0 0 Z " fill="#FFFFFF" transform="translate(535.4375,378.5)"/>
<path d="M0 0 C158.73 0 317.46 0 481 0 C481 0.99 481 1.98 481 3 C322.27 3 163.54 3 0 3 C0 2.01 0 1.02 0 0 Z " fill="#FFFFFF" transform="translate(0,453)"/>
<path d="M0 0 C158.07 0 316.14 0 479 0 C479 0.99 479 1.98 479 3 C320.93 3 162.86 3 0 3 C0 2.01 0 1.02 0 0 Z " fill="#FFFFFF" transform="translate(2,406)"/>
<path d="M0 0 C2.97 0 5.94 0 9 0 C9.33 1.65 9.66 3.3 10 5 C10.99 4.67 11.98 4.34 13 4 C13 3.34 13 2.68 13 2 C17.51492784 -0.33028534 22.01932524 -0.60587815 27 0 C30.39763156 1.40549507 32.05625198 2.85297939 34 6 C36.03185992 12.00138759 35.28342799 19.56085745 33.09765625 25.41796875 C29.53888452 31.61286769 24.26818991 36.09843037 17.375 38 C12.37587257 38 9.128705 36.75247 5 34 C4.79503906 35.28777344 4.59007812 36.57554687 4.37890625 37.90234375 C4.10698348 39.58076363 3.83483649 41.2591472 3.5625 42.9375 C3.42779297 43.78763672 3.29308594 44.63777344 3.15429688 45.51367188 C3.02216797 46.32255859 2.89003906 47.13144531 2.75390625 47.96484375 C2.63345947 48.7137085 2.5130127 49.46257324 2.38891602 50.23413086 C2 52 2 52 1 53 C-0.68608966 53.07205511 -2.37500659 53.08386068 -4.0625 53.0625 C-4.98160156 53.05347656 -5.90070312 53.04445313 -6.84765625 53.03515625 C-7.55792969 53.02355469 -8.26820313 53.01195312 -9 53 C-8.20313399 48.02316388 -7.40342322 43.04679526 -6.60131836 38.07080078 C-6.3300697 36.38569851 -6.0595361 34.70048095 -5.78979492 33.01513672 C-4.02243453 21.9765394 -2.12228793 10.97610377 0 0 Z " fill="#FFFFFF" transform="translate(546,405)"/>
<path d="M0 0 C2.24897891 1.47034083 4.21022768 3.02937267 6.19921875 4.83203125 C7.12734375 5.55390625 8.05546875 6.27578125 9.01171875 7.01953125 C16.22126512 16.28894801 15.66934979 26.69253746 15.19921875 37.83203125 C14.20921875 37.83203125 13.21921875 37.83203125 12.19921875 37.83203125 C11.12671875 38.34765625 10.05421875 38.86328125 8.94921875 39.39453125 C4.97306022 41.12474249 2.44260053 41.07578108 -1.80078125 39.83203125 C-11.19099054 35.1369266 -22.96158471 24.8658734 -26.80078125 14.83203125 C-27.65079486 11.14185242 -28.34264978 7.60075735 -27.80078125 3.83203125 C-21.41268949 -2.83180548 -8.06827195 -3.36459318 0 0 Z " fill="#050505" transform="translate(179.80078125,81.16796875)"/>
<path d="M0 0 C4.06595526 4.50551799 5.27385538 9.05342605 5 15 C3.39118827 22.17070372 1.03009631 27.65272127 -5 32 C-5.71542969 32.5259375 -6.43085937 33.051875 -7.16796875 33.59375 C-10.79845438 35.3964739 -14.03555189 35.47772964 -18 35.4375 C-19.04800781 35.4674707 -19.04800781 35.4674707 -20.1171875 35.49804688 C-25.0607132 35.49338317 -27.52043293 34.4667036 -31 31 C-34.29546918 27.13634647 -34.50908073 23.5337663 -34.35546875 18.6328125 C-33.53660552 12.56782551 -30.93325602 6.78216295 -26 3 C-25.34 3 -24.68 3 -24 3 C-24 2.34 -24 1.68 -24 1 C-16.77809733 -2.85168142 -7.46067441 -4.00328871 0 0 Z " fill="#FFFFFF" transform="translate(621,407)"/>
<path d="M0 0 C3.31419476 4.41892635 2.82416825 8.64350557 2.5 14 C2.09263283 16.23667633 1.5685605 18.41351588 1.01171875 20.6171875 C0.06424228 25.02910082 -0.15872452 29.50653957 -0.5 34 C-3.8 34 -7.1 34 -10.5 34 C-10.5 32.68 -10.5 31.36 -10.5 30 C-11.53125 30.639375 -12.5625 31.27875 -13.625 31.9375 C-16.95890973 33.8119874 -19.6045346 34.91884447 -23.5 35 C-29.82716331 32.99639829 -29.82716331 32.99639829 -31.7265625 30.18359375 C-32.64263581 27.59730596 -32.52213325 25.95050607 -32.125 23.25 C-32.01414062 22.45078125 -31.90328125 21.6515625 -31.7890625 20.828125 C-31.69367188 20.22484375 -31.59828125 19.6215625 -31.5 19 C-30.84 19 -30.18 19 -29.5 19 C-29.273125 18.401875 -29.04625 17.80375 -28.8125 17.1875 C-26.45295315 13.25492192 -22.88534917 11.99317816 -18.625 10.8125 C-14.83845043 9.94144962 -11.37380312 9.83859154 -7.5 10 C-7.84444881 7.52733235 -7.84444881 7.52733235 -8.5 5 C-13.09543291 2.70228355 -19.67247654 3.75418749 -24.5 5 C-24.5 3.02 -24.5 1.04 -24.5 -1 C-16.30059672 -3.99978169 -7.31601243 -5.85280994 0 0 Z " fill="#FFFFFF" transform="translate(433.5,334)"/>
<path d="M0 0 C2.64 0 5.28 0 8 0 C8 1.65 8 3.3 8 5 C8.6290625 4.6390625 9.258125 4.278125 9.90625 3.90625 C15.61917365 0.80888176 19.49764474 -0.78476701 26 0 C29.4203866 1.17013226 29.91540482 1.87310723 32 5 C33.35879149 16.01253102 30.68915794 26.41144059 28 37 C24.7 37 21.4 37 18 37 C18.88269795 28.42521994 18.88269795 28.42521994 19.5 26.1875 C20.24894783 22.91085322 20.36959777 19.59574681 20.5625 16.25 C20.60568359 15.55261719 20.64886719 14.85523438 20.69335938 14.13671875 C20.79889596 12.42468078 20.8998991 10.71236439 21 9 C15.75780719 8.52433833 15.75780719 8.52433833 10.95898438 10.15820312 C8.39082379 12.57273496 8.14515237 14.31680511 7.515625 17.76171875 C7.30292969 18.87998047 7.09023438 19.99824219 6.87109375 21.15039062 C6.66613281 22.31763672 6.46117187 23.48488281 6.25 24.6875 C6.02957031 25.86634766 5.80914062 27.04519531 5.58203125 28.25976562 C5.03989736 31.17078891 4.51323178 34.08376631 4 37 C0.7 37 -2.6 37 -6 37 C-5.37107368 29.8001039 -4.33936951 22.78712897 -3 15.6875 C-2.82210938 14.72521484 -2.64421875 13.76292969 -2.4609375 12.77148438 C-1.67020474 8.50801854 -0.85650379 4.25077904 0 0 Z " fill="#FFFFFF" transform="translate(449,331)"/>
<path d="M0 0 C2.64 0 5.28 0 8 0 C7.67 5.94 7.34 11.88 7 18 C7.33 15.69 7.66 13.38 8 11 C8.66 11 9.32 11 10 11 C10.12375 9.9275 10.2475 8.855 10.375 7.75 C11 4 11 4 13 0 C15.97 0 18.94 0 22 0 C21.67 5.94 21.34 11.88 21 18 C21.433125 16.329375 21.86625 14.65875 22.3125 12.9375 C23.54205496 8.4057117 25.01665551 4.25002391 27 0 C29.64 0 32.28 0 35 0 C34.40075776 4.19469571 33.42500059 8.00999834 32 12 C31.01 12 30.02 12 29 12 C29.04125 12.9075 29.0825 13.815 29.125 14.75 C29.14769459 20.25343914 27.97053523 25.6013978 27 31 C23.04 31 19.08 31 15 31 C14.67 27.04 14.34 23.08 14 19 C12.68 22.3 11.36 25.6 10 29 C9.34 29 8.68 29 8 29 C8 29.66 8 30.32 8 31 C5.03 31 2.06 31 -1 31 C-1.09776087 20.61562308 -1.1555538 10.33807949 0 0 Z " fill="#24A849" transform="translate(3,413)"/>
<path d="M0 0 C3.63 0 7.26 0 11 0 C11.33 3.3 11.66 6.6 12 10 C13.32 6.7 14.64 3.4 16 0 C19.96 0 23.92 0 28 0 C28 2.31 28 4.62 28 7 C27.34 7 26.68 7 26 7 C25.95101563 7.64324219 25.90203125 8.28648437 25.8515625 8.94921875 C25.23832612 16.36092052 24.20157431 23.66223066 23 31 C20.03 31 17.06 31 14 31 C13.76490804 26.18061476 14.54815522 22.53701494 16 18 C13.78902756 20.21097244 13.34989537 21.55740552 12.4375 24.5 C11.72483482 26.77462048 11.06630075 28.86739849 10 31 C8.68 31 7.36 31 6 31 C5.67 27.04 5.34 23.08 5 19 C4.67 22.96 4.34 26.92 4 31 C1.03 31 -1.94 31 -5 31 C-4.60523736 23.44505985 -3.55844589 16.34819911 -1.71875 9.0078125 C-1.00422807 6.01769355 -0.47141571 3.03700506 0 0 Z " fill="#24A949" transform="translate(394,413)"/>
<path d="M0 0 C3.63 0 7.26 0 11 0 C11.33 3.3 11.66 6.6 12 10 C13.32 6.7 14.64 3.4 16 0 C19.63 0 23.26 0 27 0 C26.84402344 0.9796875 26.68804687 1.959375 26.52734375 2.96875 C25.82805014 7.85520235 25.66316257 12.75510348 25.48242188 17.68359375 C25.25547543 22.41949496 24.4667169 26.48702494 23 31 C20.03 31 17.06 31 14 31 C14.33 27.04 14.66 23.08 15 19 C14.525625 20.60875 14.05125 22.2175 13.5625 23.875 C12.125 28.75 12.125 28.75 11 31 C9.02 31 7.04 31 5 31 C5 26.71 5 22.42 5 18 C4.01 22.29 3.02 26.58 2 31 C-0.31 31 -2.62 31 -5 31 C-5.19545004 26.99327413 -4.68387235 23.85245966 -3.54345703 20.03100586 C-2.53515885 16.26279714 -1.98295892 12.41187253 -1.375 8.5625 C-1.2409375 7.73556641 -1.106875 6.90863281 -0.96875 6.05664062 C-0.64209225 4.03836235 -0.32051785 2.01926243 0 0 Z " fill="#24A949" transform="translate(428,413)"/>
<path d="M0 0 C-0.66 3.3 -1.32 6.6 -2 10 C0.64 10 3.28 10 6 10 C5.67 12.64 5.34 15.28 5 18 C1.04 18.495 1.04 18.495 -3 19 C-3.50780894 21.20655075 -4.00591365 23.41533605 -4.5 25.625 C-4.7784375 26.85476563 -5.056875 28.08453125 -5.34375 29.3515625 C-5.94091621 32.67152228 -6.12409534 35.63908451 -6 39 C-4.02 39 -2.04 39 0 39 C0.04241723 41.33294775 0.04092937 43.66702567 0 46 C-1.71689489 47.71689489 -3.90878137 47.25303054 -6.25 47.3125 C-9.81395462 47.25225109 -11.87843397 47.05244025 -15.1875 45.625 C-18.72298481 40.50464269 -17.36589473 34.85944553 -16.3125 29.01171875 C-15.60688994 25.32594894 -14.82025091 21.66183441 -14 18 C-15.32 18 -16.64 18 -18 18 C-17.67 15.36 -17.34 12.72 -17 10 C-15.35 10 -13.7 10 -12 10 C-11.855625 8.700625 -11.71125 7.40125 -11.5625 6.0625 C-11.125 2.125 -11.125 2.125 -10 1 C-6.62658866 0.43776478 -3.42229689 0 0 0 Z " fill="#FFFFFF" transform="translate(508,321)"/>
<path d="M0 0 C-0.875 7.75 -0.875 7.75 -2 10 C0.97 10 3.94 10 7 10 C6.34 12.64 5.68 15.28 5 18 C2.36 18 -0.28 18 -3 18 C-4.25841946 24.74153283 -5.26404456 31.13484138 -5 38 C-3.02 38.66 -1.04 39.32 1 40 C1.04254356 41.99954746 1.04080783 44.00041636 1 46 C-0.874035 47.874035 -3.86637064 47.25989078 -6.375 47.3125 C-8.11910156 47.36857422 -8.11910156 47.36857422 -9.8984375 47.42578125 C-13 47 -13 47 -14.890625 45.28515625 C-18.84213055 37.14561137 -15.02255276 26.24671808 -13 18 C-14.65 18 -16.3 18 -18 18 C-17.67 15.36 -17.34 12.72 -17 10 C-15.35 9.67 -13.7 9.34 -12 9 C-11.34 6.69 -10.68 4.38 -10 2 C-8.7090864 1.66376204 -7.41723903 1.33110751 -6.125 1 C-5.40570312 0.814375 -4.68640625 0.62875 -3.9453125 0.4375 C-2 0 -2 0 0 0 Z " fill="#FFFFFF" transform="translate(682,395)"/>
<path d="M0 0 C0 3 0 3 -0.9375 5.25 C-3 7 -3 7 -5.09765625 6.92578125 C-6.68733966 6.6853901 -8.27084266 6.3993383 -9.84375 6.06640625 C-12.08397513 5.77243447 -12.08397513 5.77243447 -13.78125 7.33984375 C-15.19725824 8.92545396 -15.19725824 8.92545396 -15 11 C-12.53513705 12.69019174 -10.16871609 13.93572721 -7.375 15 C-4.84427138 16.06556995 -3.71003891 16.87819534 -2 19 C-1.08744351 23.39013662 -1.42209686 27.01542429 -3.6875 30.875 C-8.82763107 35.59836369 -13.12820648 36.85614603 -20 37 C-23.03907677 36.80229909 -25.98080993 36.43131287 -29 36 C-29.495 34.515 -29.495 34.515 -30 33 C-28.5625 30.3125 -28.5625 30.3125 -27 28 C-26.319375 28.165 -25.63875 28.33 -24.9375 28.5 C-20.93763809 29.18082756 -16.71583773 29.85791887 -13 28 C-13 26.35 -13 24.7 -13 23 C-13.68707031 22.69707031 -14.37414062 22.39414062 -15.08203125 22.08203125 C-22.35222672 18.70175439 -22.35222672 18.70175439 -25.25 15.5625 C-26.30574675 11.95536529 -25.64520743 10.35896518 -24 7 C-20.70922747 1.75533129 -17.63338986 -0.12113146 -11.6484375 -1.67578125 C-7.49611267 -2.1841042 -3.92788796 -1.31878364 0 0 Z " fill="#FFFFFF" transform="translate(719,406)"/>
<path d="M0 0 C0.9590625 -0.00257813 1.918125 -0.00515625 2.90625 -0.0078125 C5.5 0.125 5.5 0.125 8.5 1.125 C7.75 5.875 7.75 5.875 5.5 8.125 C4.51 7.795 3.52 7.465 2.5 7.125 C-1.04178598 6.87496036 -1.04178598 6.87496036 -4.5 7.125 C-5.16 7.785 -5.82 8.445 -6.5 9.125 C-6.5 10.115 -6.5 11.105 -6.5 12.125 C-2.045 14.105 -2.045 14.105 2.5 16.125 C2.5 16.785 2.5 17.445 2.5 18.125 C3.49 18.455 4.48 18.785 5.5 19.125 C7.25713848 22.63927696 6.43923025 26.40667751 5.5 30.125 C1.76887478 34.99619126 -1.87682222 36.5077817 -7.6875 37.875 C-12.55101975 38.19391933 -16.79223358 37.27115641 -21.5 36.125 C-20.625 31.375 -20.625 31.375 -19.5 29.125 C-18.58476563 29.20878906 -17.66953125 29.29257812 -16.7265625 29.37890625 C-15.53804687 29.48074219 -14.34953125 29.58257812 -13.125 29.6875 C-11.94164062 29.79191406 -10.75828125 29.89632813 -9.5390625 30.00390625 C-6.58101369 30.36653596 -6.58101369 30.36653596 -4.5 29.125 C-4.5 27.475 -4.5 25.825 -4.5 24.125 C-5.18707031 23.82207031 -5.87414062 23.51914062 -6.58203125 23.20703125 C-10.41870452 21.42317029 -13.76382646 19.84127696 -16.8125 16.875 C-17.90983728 12.4856509 -16.66412941 9.02334759 -14.5 5.125 C-9.80249424 1.21041187 -6.01904525 -0.01618023 0 0 Z " fill="#FFFFFF" transform="translate(557.5,330.875)"/>
<path d="M0 0 C0.80566406 0.00322266 1.61132812 0.00644531 2.44140625 0.00976562 C3.70404297 0.02233398 3.70404297 0.02233398 4.9921875 0.03515625 C5.84167969 0.03966797 6.69117188 0.04417969 7.56640625 0.04882812 C9.66669659 0.06062751 11.7669508 0.07856319 13.8671875 0.09765625 C13.8671875 2.07765625 13.8671875 4.05765625 13.8671875 6.09765625 C13.2071875 6.09765625 12.5471875 6.09765625 11.8671875 6.09765625 C11.81820312 6.95488281 11.76921875 7.81210937 11.71875 8.6953125 C10.70072188 24.26412187 10.70072188 24.26412187 6.8671875 28.09765625 C4.12233157 28.2427332 1.48238207 28.28418048 -1.2578125 28.22265625 C-2.01191406 28.21363281 -2.76601562 28.20460938 -3.54296875 28.1953125 C-5.40638504 28.17172495 -7.26963843 28.13585344 -9.1328125 28.09765625 C-9.4628125 26.44765625 -9.7928125 24.79765625 -10.1328125 23.09765625 C-9.1428125 23.09765625 -8.1528125 23.09765625 -7.1328125 23.09765625 C-7.1328125 22.10765625 -7.1328125 21.11765625 -7.1328125 20.09765625 C-7.7928125 20.09765625 -8.4528125 20.09765625 -9.1328125 20.09765625 C-9.1328125 17.78765625 -9.1328125 15.47765625 -9.1328125 13.09765625 C-8.4728125 13.09765625 -7.8128125 13.09765625 -7.1328125 13.09765625 C-7.14441406 12.48277344 -7.15601563 11.86789062 -7.16796875 11.234375 C-7.17699219 10.42613281 -7.18601563 9.61789062 -7.1953125 8.78515625 C-7.20691406 7.98464844 -7.21851563 7.18414062 -7.23046875 6.359375 C-7.1328125 4.09765625 -7.1328125 4.09765625 -6.1328125 1.09765625 C-3.8362755 -0.05061225 -2.54968083 -0.0179555 0 0 Z " fill="#22A146" transform="translate(187.1328125,418.90234375)"/>
<path d="M0 0 C4.29 0 8.58 0 13 0 C13 10.23 13 20.46 13 31 C10.03 31 7.06 31 4 31 C4 29.02 4 27.04 4 25 C3.01 25.33 2.02 25.66 1 26 C0.67 27.65 0.34 29.3 0 31 C-3.3 31 -6.6 31 -10 31 C-9.01 27.04 -8.02 23.08 -7 19 C-6.34 19 -5.68 19 -5 19 C-4.89042969 18.21496094 -4.78085937 17.42992187 -4.66796875 16.62109375 C-3.7619808 10.61800285 -2.71923287 5.43846574 0 0 Z " fill="#23A849" transform="translate(464,413)"/>
<path d="M0 0 C0.9384375 -0.00515625 1.876875 -0.0103125 2.84375 -0.015625 C5.54047676 0.25404768 7.18949293 0.8767741 9.5 2.25 C9.75356486 9.2512075 9.79678124 15.51773049 6 21.6875 C5.505 22.203125 5.01 22.71875 4.5 23.25 C3.84 23.25 3.18 23.25 2.5 23.25 C2.5 23.91 2.5 24.57 2.5 25.25 C-2.12 25.25 -6.74 25.25 -11.5 25.25 C-11.5 24.59 -11.5 23.93 -11.5 23.25 C-12.16 23.25 -12.82 23.25 -13.5 23.25 C-14.08519312 15.75627693 -13.23992737 8.89875977 -9.5 2.25 C-6.4483372 0.04749554 -3.69604191 -0.02030792 0 0 Z " fill="#23A347" transform="translate(69.5,418.75)"/>
<path d="M0 0 C0.125 7.75 0.125 7.75 -1 10 C-3.3045052 10.63817067 -5.61496323 11.02037323 -7.96875 11.4375 C-8.6390625 11.623125 -9.309375 11.80875 -10 12 C-10.33 12.66 -10.66 13.32 -11 14 C-11.66 14 -12.32 14 -13 14 C-14.32 21.92 -15.64 29.84 -17 38 C-20.63 38 -24.26 38 -28 38 C-27.56880859 35.66615234 -27.56880859 35.66615234 -27.12890625 33.28515625 C-25.79079155 25.92965174 -24.59892534 18.55112301 -23.41210938 11.16992188 C-23.24388672 10.14318359 -23.07566406 9.11644531 -22.90234375 8.05859375 C-22.67792603 6.67111938 -22.67792603 6.67111938 -22.44897461 5.25561523 C-22 3 -22 3 -21 1 C-18.36 1 -15.72 1 -13 1 C-13.33 3.64 -13.66 6.28 -14 9 C-13.01 7.88625 -13.01 7.88625 -12 6.75 C-9.18786662 3.91362409 -4.19341366 0 0 0 Z " fill="#FFFFFF" transform="translate(659,404)"/>
<path d="M0 0 C2.31 0 4.62 0 7 0 C6.86722656 0.85722656 6.73445313 1.71445312 6.59765625 2.59765625 C5.70230552 8.39456209 4.81061436 14.19059708 4 20 C4.66 20 5.32 20 6 20 C6.12117188 19.05898438 6.24234375 18.11796875 6.3671875 17.1484375 C6.53476562 15.90320313 6.70234375 14.65796875 6.875 13.375 C7.03742188 12.14523437 7.19984375 10.91546875 7.3671875 9.6484375 C7.95483689 6.26038483 8.81988122 3.22301349 10 0 C13.3 0 16.6 0 20 0 C19.41754805 6.79527273 18.4597922 13.33881231 17 20 C16.01 20 15.02 20 14 20 C14 21.65 14 23.3 14 25 C8.39 25 2.78 25 -3 25 C-4.125 17.125 -4.125 17.125 -3.22265625 13.37890625 C-3.03896484 12.58935547 -2.85527344 11.79980469 -2.66601562 10.98632812 C-2.36727539 9.7865332 -2.36727539 9.7865332 -2.0625 8.5625 C-1.76956055 7.32209961 -1.76956055 7.32209961 -1.47070312 6.05664062 C-0.99160691 4.03508829 -0.49734766 2.01713964 0 0 Z " fill="#24AB4A" transform="translate(351,419)"/>
<path d="M0 0 C2.64 0 5.28 0 8 0 C8 1.98 8 3.96 8 6 C7.34 6 6.68 6 6 6 C6 9.96 6 13.92 6 18 C6.66 18 7.32 18 8 18 C8.12375 16.88625 8.2475 15.7725 8.375 14.625 C8.98457542 9.69539009 9.97473685 4.85755745 11 0 C13.64 0 16.28 0 19 0 C19.555445 8.74311573 17.85561274 16.49510829 16 25 C9.73 25 3.46 25 -3 25 C-2.67 18.07 -2.34 11.14 -2 4 C-1.34 4 -0.68 4 0 4 C0 2.68 0 1.36 0 0 Z " fill="#24AA4A" transform="translate(250,419)"/>
<path d="M0 0 C2.95839355 -0.02689449 5.91654427 -0.04678741 8.875 -0.0625 C9.71675781 -0.07087891 10.55851563 -0.07925781 11.42578125 -0.08789062 C12.23144531 -0.09111328 13.03710938 -0.09433594 13.8671875 -0.09765625 C14.98262939 -0.10551147 14.98262939 -0.10551147 16.12060547 -0.11352539 C18 0 18 0 20 1 C19.45423097 9.10036134 18.45852964 17.01348818 17 25 C13.7 25 10.4 25 7 25 C8.01791923 17.89622327 9.09905099 10.92488567 11 4 C10.34 4 9.68 4 9 4 C8.88406494 4.56509277 8.76812988 5.13018555 8.64868164 5.71240234 C8.12284704 8.26720691 7.59272705 10.8211036 7.0625 13.375 C6.88009766 14.26445312 6.69769531 15.15390625 6.50976562 16.0703125 C6.33251953 16.92109375 6.15527344 17.771875 5.97265625 18.6484375 C5.81031494 19.43395996 5.64797363 20.21948242 5.48071289 21.02880859 C5 23 5 23 4 25 C1.69 25 -0.62 25 -3 25 C-2.85923685 23.0412957 -2.7122324 21.08303907 -2.5625 19.125 C-2.48128906 18.03445313 -2.40007812 16.94390625 -2.31640625 15.8203125 C-2 13 -2 13 -1 11 C-0.7724985 9.12943209 -0.59037189 7.25314042 -0.4375 5.375 C-0.31181641 3.87066406 -0.31181641 3.87066406 -0.18359375 2.3359375 C-0.12300781 1.56507813 -0.06242188 0.79421875 0 0 Z " fill="#24A949" transform="translate(155,419)"/>
<path d="M0 0 C3.3 0 6.6 0 10 0 C10.35326801 7.346163 9.01210377 14.12837551 7.5625 21.3125 C7.33240234 22.49134766 7.10230469 23.67019531 6.86523438 24.88476562 C5.16462054 33.50613839 5.16462054 33.50613839 4 37 C0.7 37 -2.6 37 -6 37 C-4.30543516 24.59722758 -2.44872076 12.2783374 0 0 Z " fill="#FFFFFF" transform="translate(522,331)"/>
<path d="M0 0 C0.9384375 -0.01417969 1.876875 -0.02835937 2.84375 -0.04296875 C5.55994337 0.19270097 7.17915046 0.80265346 9.5 2.1875 C9.5 4.1675 9.5 6.1475 9.5 8.1875 C6.53 8.1875 3.56 8.1875 0.5 8.1875 C0.5 6.8675 0.5 5.5475 0.5 4.1875 C-0.49 4.6825 -0.49 4.6825 -1.5 5.1875 C-1.5 6.8375 -1.5 8.4875 -1.5 10.1875 C1.47 11.1775 4.44 12.1675 7.5 13.1875 C7.67942163 17.13477588 7.59350689 19.7855513 5.5 23.1875 C4.84 23.1875 4.18 23.1875 3.5 23.1875 C3.5 23.8475 3.5 24.5075 3.5 25.1875 C-1.12 25.1875 -5.74 25.1875 -10.5 25.1875 C-10.5 24.5275 -10.5 23.8675 -10.5 23.1875 C-11.16 23.1875 -11.82 23.1875 -12.5 23.1875 C-12.5 21.2075 -12.5 19.2275 -12.5 17.1875 C-9.86 17.1875 -7.22 17.1875 -4.5 17.1875 C-4.83 18.1775 -5.16 19.1675 -5.5 20.1875 C-4.51 19.5275 -3.52 18.8675 -2.5 18.1875 C-2.83 16.8675 -3.16 15.5475 -3.5 14.1875 C-5.81 13.5275 -8.12 12.8675 -10.5 12.1875 C-10.17 8.5575 -9.84 4.9275 -9.5 1.1875 C-6.06983493 0.32995873 -3.48677566 0.02394764 0 0 Z " fill="#24AA4A" transform="translate(93.5,418.8125)"/>
<path d="M0 0 C2.41624591 2.83284004 2.96864402 4.66135537 3.3125 8.375 C2.85620879 13.66797802 2.12106585 19.30525131 -2 23 C-5.34301273 23.8509487 -7.91397905 24.20546342 -11.3125 23.5625 C-14.17913484 20.90820848 -14.807236 17.755789 -15 14 C-14.24989546 9.22790637 -12.98403702 5.26079743 -10 1.4375 C-6.49211716 -1.08379079 -4.02171132 -1.40759896 0 0 Z " fill="#091F0F" transform="translate(612,412)"/>
<path d="M0 0 C3.63 0 7.26 0 11 0 C10.67 1.98 10.34 3.96 10 6 C10.66 6 11.32 6 12 6 C12 7.32 12 8.64 12 10 C11.01 10 10.02 10 9 10 C9 11.65 9 13.3 9 15 C8.01 15 7.02 15 6 15 C6.020625 16.27875 6.04125 17.5575 6.0625 18.875 C6.125 22.75 6.125 22.75 5 25 C6.32 25 7.64 25 9 25 C9 25.99 9 26.98 9 28 C8.01 28 7.02 28 6 28 C6 28.66 6 29.32 6 30 C2.7 30 -0.6 30 -4 30 C-4.10171449 23.2190337 -3.95900898 16.71306286 -3 10 C-3 8.68 -3 7.36 -3 6 C-2.34 5.67 -1.68 5.34 -1 5 C-0.67 3.35 -0.34 1.7 0 0 Z " fill="#24A047" transform="translate(109,414)"/>
<path d="M0 0 C2.6577505 0.36645326 4.39607651 1.0199422 6.69140625 2.37109375 C6.69140625 4.35109375 6.69140625 6.33109375 6.69140625 8.37109375 C3.72140625 8.37109375 0.75140625 8.37109375 -2.30859375 8.37109375 C-2.63859375 7.38109375 -2.96859375 6.39109375 -3.30859375 5.37109375 C-3.30859375 7.02109375 -3.30859375 8.67109375 -3.30859375 10.37109375 C-2.17421875 10.68046875 -1.03984375 10.98984375 0.12890625 11.30859375 C3.69140625 12.37109375 3.69140625 12.37109375 4.69140625 13.37109375 C4.95463085 17.3194628 4.78137998 19.97488644 2.69140625 23.37109375 C2.03140625 23.37109375 1.37140625 23.37109375 0.69140625 23.37109375 C0.69140625 24.03109375 0.69140625 24.69109375 0.69140625 25.37109375 C-3.26859375 25.37109375 -7.22859375 25.37109375 -11.30859375 25.37109375 C-11.30859375 24.71109375 -11.30859375 24.05109375 -11.30859375 23.37109375 C-11.96859375 23.37109375 -12.62859375 23.37109375 -13.30859375 23.37109375 C-13.30859375 21.39109375 -13.30859375 19.41109375 -13.30859375 17.37109375 C-10.99859375 17.37109375 -8.68859375 17.37109375 -6.30859375 17.37109375 C-6.30859375 18.36109375 -6.30859375 19.35109375 -6.30859375 20.37109375 C-5.31859375 20.37109375 -4.32859375 20.37109375 -3.30859375 20.37109375 C-3.30859375 19.38109375 -3.30859375 18.39109375 -3.30859375 17.37109375 C-3.96859375 17.37109375 -4.62859375 17.37109375 -5.30859375 17.37109375 C-5.30859375 16.38109375 -5.30859375 15.39109375 -5.30859375 14.37109375 C-7.28859375 13.71109375 -9.26859375 13.05109375 -11.30859375 12.37109375 C-11.5169921 8.82832184 -11.44483201 5.86364744 -10.49609375 2.43359375 C-7.25815195 -0.61932281 -4.30619912 -0.09959916 0 0 Z " fill="#24A949" transform="translate(337.30859375,418.62890625)"/>
<path d="M0 0 C2.34080786 1.73600583 2.938167 2.60839097 3.3984375 5.5234375 C3.3200123 15.06517061 3.3200123 15.06517061 0 19 C-0.391875 19.598125 -0.78375 20.19625 -1.1875 20.8125 C-4.22224204 22.80077927 -7.49223531 22.54190937 -11 22 C-13.21379074 20.57174791 -13.77687978 19.66360271 -14.60546875 17.19921875 C-15.35704852 13.00971966 -14.32448273 8.99283085 -13 5 C-9.1292299 0.13672474 -6.10757228 -1.83227168 0 0 Z " fill="#081A0D" transform="translate(567,413)"/>
<path d="M0 0 C1.55980938 3.96249712 0.35510709 6.54883468 -1.0625 10.4375 C-3.33646529 16.87728516 -5.32532666 23.36692816 -7.1875 29.9375 C-7.43701416 30.81269287 -7.68652832 31.68788574 -7.94360352 32.58959961 C-9.04778514 36.49610265 -10.11359214 40.40421662 -11.078125 44.34765625 C-11.7861825 47.15288406 -12.5677471 49.79177222 -13.5625 52.5 C-14.614475 55.51984863 -15.21787878 58.25356047 -15.5 61.4375 C-15.665 62.613125 -15.83 63.78875 -16 65 C-17.485 65.99 -17.485 65.99 -19 67 C-19.5799821 53.3070687 -19.63329917 41.71736581 -14 29 C-13.58105469 28.0203125 -13.16210938 27.040625 -12.73046875 26.03125 C-11.53489068 23.32886402 -10.27363458 20.66630043 -9 18 C-8.14366232 16.08430233 -7.28949236 14.16763417 -6.4375 12.25 C-4.51353428 8.00631611 -2.39652233 3.99420388 0 0 Z " fill="#111210" transform="translate(19,217)"/>
<path d="M0 0 C2.97 0 5.94 0 9 0 C9 1.65 9 3.3 9 5 C9.66 5 10.32 5 11 5 C10.67 6.65 10.34 8.3 10 10 C9.01 10.33 8.02 10.66 7 11 C6.86722656 11.84304688 6.73445313 12.68609375 6.59765625 13.5546875 C6.42105469 14.65039062 6.24445313 15.74609375 6.0625 16.875 C5.88847656 17.96554687 5.71445312 19.05609375 5.53515625 20.1796875 C5 23 5 23 4 25 C4.66 25 5.32 25 6 25 C6 26.65 6 28.3 6 30 C2.37 30 -1.26 30 -5 30 C-5.1619773 26.1125447 -5.06881872 22.87339241 -4 19.125 C-2.77549479 14.72712919 -2.81105148 10.53476445 -3 6 C-2.01 5.67 -1.02 5.34 0 5 C0 3.35 0 1.7 0 0 Z " fill="#24A147" transform="translate(312,414)"/>
<path d="M0 0 C4.29 0 8.58 0 13 0 C13 3.3 13 6.6 13 10 C11.02 10 9.04 10 7 10 C6.86722656 10.66386719 6.73445313 11.32773437 6.59765625 12.01171875 C5.73177083 16.34114583 4.86588542 20.67057292 4 25 C1.03 25 -1.94 25 -5 25 C-4.40516586 20.63788297 -3.75023775 16.28595208 -3.0625 11.9375 C-2.90910156 10.95652344 -2.75570312 9.97554688 -2.59765625 8.96484375 C-2 6 -2 6 0 0 Z " fill="#24A548" transform="translate(42,419)"/>
<path d="M0 0 C2.31 0 4.62 0 7 0 C6.85904936 1.6254308 6.71207913 3.25034051 6.5625 4.875 C6.48128906 5.77992188 6.40007812 6.68484375 6.31640625 7.6171875 C6 10 6 10 5 12 C4.63141433 14.83350235 4.29854833 17.65912604 4 20.5 C3.13513514 28.72972973 3.13513514 28.72972973 2 31 C-1.96 31 -5.92 31 -10 31 C-10 29.35 -10 27.7 -10 26 C-8.35 25.67 -6.7 25.34 -5 25 C-4.9175 23.845 -4.835 22.69 -4.75 21.5 C-3.96315715 14.18353585 -1.8725422 7.09824136 0 0 Z " fill="#23A548" transform="translate(222,413)"/>
<path d="M0 0 C3.3 0 6.6 0 10 0 C9.57289565 2.8352459 9.13364753 5.66774006 8.6875 8.5 C8.56955078 9.29148437 8.45160156 10.08296875 8.33007812 10.8984375 C7.47257274 16.26334296 6.05928092 20.97004774 4 26 C3.34 26 2.68 26 2 26 C2 26.66 2 27.32 2 28 C-0.64 28 -3.28 28 -6 28 C-6 27.01 -6 26.02 -6 25 C-5.01 25 -4.02 25 -3 25 C-2.95101563 23.69804687 -2.90203125 22.39609375 -2.8515625 21.0546875 C-2.77649371 19.32810529 -2.70094767 17.60154378 -2.625 15.875 C-2.5940625 15.0190625 -2.563125 14.163125 -2.53125 13.28125 C-2.31114982 8.5124128 -1.80839517 4.48423193 0 0 Z " fill="#24A949" transform="translate(280,419)"/>
<path d="M0 0 C3.3 0 6.6 0 10 0 C9.85433594 0.8559375 9.70867187 1.711875 9.55859375 2.59375 C8.83923747 6.98031417 8.22114805 11.38013144 7.59765625 15.78125 C7.00146676 18.99210057 6.10471724 21.93082742 5 25 C1.7 25 -1.6 25 -5 25 C-2.45 6.3 -2.45 6.3 0 0 Z " fill="#24A849" transform="translate(235,419)"/>
<path d="M0 0 C0 0.66 0 1.32 0 2 C-1.609375 3.21875 -1.609375 3.21875 -3.75 4.5 C-4.44609375 4.9228125 -5.1421875 5.345625 -5.859375 5.78125 C-8 7 -8 7 -10.140625 7.90625 C-12.47962325 9.28213132 -12.82836999 10.58966193 -14 13 C-16.0234375 14.88671875 -16.0234375 14.88671875 -18.375 16.6875 C-19.14585938 17.28949219 -19.91671875 17.89148438 -20.7109375 18.51171875 C-22.88247501 19.9235887 -24.47080352 20.56691841 -27 21 C-27.66885154 16.46667287 -28.09457435 12.60646484 -25.4296875 8.6953125 C-23.38540831 6.63548746 -21.267067 4.80949384 -19 3 C-18.113125 2.154375 -17.22625 1.30875 -16.3125 0.4375 C-10.9643502 -1.8833952 -5.66852107 -0.77374472 0 0 Z " fill="#FFFFFF" transform="translate(109,126)"/>
<path d="M0 0 C2.97 0 5.94 0 9 0 C8.71599915 2.85511491 8.42304348 5.7088449 8.125 8.5625 C8.00705078 9.76229492 8.00705078 9.76229492 7.88671875 10.98632812 C7.36862582 15.86835763 6.49454158 20.32170807 5 25 C1.7 25 -1.6 25 -5 25 C-5 22.69 -5 20.38 -5 18 C-4.34 18 -3.68 18 -3 18 C-2.87625 16.88625 -2.7525 15.7725 -2.625 14.625 C-2.01542458 9.69539009 -1.02526315 4.85755745 0 0 Z " fill="#24AA4A" transform="translate(141,419)"/>
<path d="M0 0 C2.64 0 5.28 0 8 0 C7.4181676 7.14711654 6.33465406 14.09479725 4.9375 21.125 C4.6580957 22.55972656 4.6580957 22.55972656 4.37304688 24.0234375 C3.91940944 26.34978331 3.46167962 28.67523936 3 31 C0.36 31 -2.28 31 -5 31 C-5.21583561 26.46745219 -4.50130754 23.2537047 -3 19 C-1.31913176 12.72395241 -0.51312855 6.4681204 0 0 Z " fill="#23A548" transform="translate(127,413)"/>
<path d="M0 0 C2.64 0 5.28 0 8 0 C8 1.32 8 2.64 8 4 C7.34 4 6.68 4 6 4 C6.01160156 5.09699219 6.02320313 6.19398438 6.03515625 7.32421875 C6.04453964 8.77864412 6.05363925 10.23307135 6.0625 11.6875 C6.07087891 12.40873047 6.07925781 13.12996094 6.08789062 13.87304688 C6.10543632 17.71555382 5.93524221 21.26639526 5 25 C2.03 25 -0.94 25 -4 25 C-3.53869482 17.82549043 -2.79771943 10.96616278 -1 4 C-0.814375 3.2575 -0.62875 2.515 -0.4375 1.75 C-0.2209375 0.88375 -0.2209375 0.88375 0 0 Z " fill="#23A949" transform="translate(296,419)"/>
<path d="M0 0 C0.66 0.99 1.32 1.98 2 3 C1.63390625 3.44085938 1.2678125 3.88171875 0.890625 4.3359375 C-3.33300445 9.58530553 -7.10425924 15.07002513 -10.8125 20.6875 C-21.05529869 36.18158571 -31.73870301 51.35081173 -44.3125 65.0625 C-44.79187012 65.58658447 -45.27124023 66.11066895 -45.76513672 66.65063477 C-48.96293402 70.07257673 -52.35153563 73.06290535 -56 76 C-56.66 75.34 -57.32 74.68 -58 74 C-57.55011719 73.70609375 -57.10023438 73.4121875 -56.63671875 73.109375 C-32.4876489 56.26793951 -15.39659338 24.442092 0 0 Z " fill="#112516" transform="translate(192,314)"/>
<path d="M0 0 C2.77866758 2.61844542 4.84752932 5.10684096 6.734375 8.421875 C7.22212402 9.27458984 7.70987305 10.12730469 8.21240234 11.00585938 C8.71980957 11.91142578 9.2272168 12.81699219 9.75 13.75 C10.27932129 14.68650391 10.80864258 15.62300781 11.35400391 16.58789062 C15.84585699 24.59706531 20.03758885 32.71820372 24 41 C24.5775 42.1859375 25.155 43.371875 25.75 44.59375 C31.09909457 55.80627515 31.09909457 55.80627515 32 62 C31.03125 64.21484375 31.03125 64.21484375 30 66 C29.77441406 64.7521875 29.54882812 63.504375 29.31640625 62.21875 C27.98930211 56.27406653 25.52634945 50.98911953 22.9375 45.5 C22.44725342 44.44844727 21.95700684 43.39689453 21.4519043 42.31347656 C15.57140881 29.80729884 9.55159529 17.63758491 1.43359375 6.41796875 C0 4 0 4 0 0 Z " fill="#25853E" transform="translate(93,31)"/>
<path d="M0 0 C0.33 1.32 0.66 2.64 1 4 C0.01 4.33 -0.98 4.66 -2 5 C-5.00097 9.54985774 -6.98463666 14.27478859 -8.9375 19.34765625 C-10.00673271 22.01680701 -11.20298163 24.59115355 -12.4375 27.1875 C-15.55334528 33.92237055 -17.76024064 40.93760985 -20 48 C-20.33 48 -20.66 48 -21 48 C-21.40346838 41.88210193 -20.02639398 37.15973032 -17.9375 31.4375 C-17.62312988 30.5614209 -17.30875977 29.6853418 -16.98486328 28.78271484 C-7.85025735 3.92512868 -7.85025735 3.92512868 0 0 Z " fill="#2E8B45" transform="translate(21,213)"/>
<path d="M0 0 C-0.28578509 3.71520613 -0.5027779 6.30020593 -2.6875 9.375 C-5.5022911 11.35296132 -7.58796241 11.77747581 -11 12 C-11.66 11.67 -12.32 11.34 -13 11 C-13.23397834 8.14546425 -13.42468097 5.796276 -13 3 C-9.20325296 -0.79674704 -5.04064372 -0.25630392 0 0 Z " fill="#0E2F17" transform="translate(425,350)"/>
<path d="M0 0 C2.0625 0.4375 2.0625 0.4375 4 1 C3.360625 1.61875 2.72125 2.2375 2.0625 2.875 C-1.30397467 6.34348906 -1.14874156 8.55931448 -1.24609375 13.30859375 C-1.27775635 14.60531006 -1.30941895 15.90202637 -1.34204102 17.23803711 C-1.3651384 18.26790237 -1.3651384 18.26790237 -1.38870239 19.318573 C-1.6797692 31.95749824 -2.35406546 44.45574158 -4 57 C-4.33 57 -4.66 57 -5 57 C-5.18889347 26.71601789 -5.18889347 26.71601789 -4.6875 14.9375 C-4.66502197 14.20297607 -4.64254395 13.46845215 -4.61938477 12.71166992 C-4.37347139 8.00808868 -3.45542134 3.45542134 0 0 Z " fill="#207036" transform="translate(149,31)"/>
<path d="M0 0 C9.00859667 1.91311596 15.28988317 5.81229711 22 12 C23.02480469 12.92232422 23.02480469 12.92232422 24.0703125 13.86328125 C28.77143123 18.29885562 32.0456186 22.50694392 32.3984375 29.19921875 C32.40631859 30.69531214 32.39823279 32.19156625 32.375 33.6875 C32.38660156 34.44611328 32.39820313 35.20472656 32.41015625 35.98632812 C32.38098437 41.49495149 32.38098437 41.49495149 30.4765625 44.01953125 C29.98929688 44.34308594 29.50203125 44.66664063 29 45 C29.23783203 43.94039062 29.23783203 43.94039062 29.48046875 42.859375 C31.02345927 34.36712645 30.82796932 26.34511571 26 19 C19.76537758 10.81993029 10.58250671 4.78459027 0.3828125 3.12109375 C-3.73655112 2.57809641 -7.85288853 2.24336343 -12 2 C-7.97228679 -0.68514214 -4.65249186 -0.53366818 0 0 Z " fill="#232522" transform="translate(108,117)"/>
<path d="M0 0 C4.1679563 1.78626698 6.99267953 4.24962524 9.265625 8.19921875 C12.66132566 16.78279543 12.38278233 24.93018535 12 34 C11.01 34 10.02 34 9 34 C7.9275 34.515625 6.855 35.03125 5.75 35.5625 C1.91016758 37.29083221 -0.89347996 37.04676001 -5 36 C-5.66 35.34 -6.32 34.68 -7 34 C-5.87851563 34.03480469 -5.87851563 34.03480469 -4.734375 34.0703125 C-3.25710937 34.09738281 -3.25710937 34.09738281 -1.75 34.125 C-0.28820312 34.15980469 -0.28820312 34.15980469 1.203125 34.1953125 C4.05069951 33.99645953 5.63037132 33.55438946 8 32 C11.00951503 25.98096994 8.545809 18.56288253 6.71875 12.5234375 C6 10 6 10 5.5625 6.4375 C5.2840625 5.2309375 5.2840625 5.2309375 5 4 C3.06616713 2.69934079 3.06616713 2.69934079 1 2 C0.67 1.34 0.34 0.68 0 0 Z " fill="#242D24" transform="translate(183,85)"/>
<path d="M0 0 C0.66 0.33 1.32 0.66 2 1 C1.34 1.66 0.68 2.32 0 3 C0.66 3.66 1.32 4.32 2 5 C0.96875 5.4125 -0.0625 5.825 -1.125 6.25 C-8.6374387 9.52542327 -17.23762809 15.47525617 -21 23 C-21.22467831 24.53668865 -21.40796805 26.07968054 -21.5625 27.625 C-21.64628906 28.44226563 -21.73007813 29.25953125 -21.81640625 30.1015625 C-21.87699219 30.72804687 -21.93757813 31.35453125 -22 32 C-22.33 32 -22.66 32 -23 32 C-23 30.35 -23 28.7 -23 27 C-23.66 27 -24.32 27 -25 27 C-23.59283123 16.92397669 -12.44810558 9.16847936 -4.8046875 3.3203125 C-3.22226254 2.18634805 -1.61439754 1.08796356 0 0 Z " fill="#307340" transform="translate(94,114)"/>
<path d="M0 0 C2 2 2 2 2.375 4.4375 C2 7 2 7 0.3125 8.8125 C-2.39289476 10.20175677 -3.99801488 10.39499804 -7 10 C-7.66 9.34 -8.32 8.68 -9 8 C-8.8125 5 -8.8125 5 -8 2 C-4.77626323 -0.14915785 -3.73296326 -0.38286803 0 0 Z " fill="#FFFFFF" transform="translate(533,315)"/>
<path d="M0 0 C0.66 0 1.32 0 2 0 C2.14695312 0.53367188 2.29390625 1.06734375 2.4453125 1.6171875 C5.22245283 10.84240077 9.11452274 18.40968182 17.265625 23.84375 C19 25 19 25 21 27 C20.34 27.66 19.68 28.32 19 29 C10.85094296 23.08685203 3.06465409 16.91505735 0 7 C-0.1875 3.0625 -0.1875 3.0625 0 0 Z " fill="#2D9949" transform="translate(69,141)"/>
<path d="M0 0 C1.69420767 4.0660984 0.1186342 7.35459085 -1.3125 11.25 C-3.14492377 16.4598323 -4.78974516 21.60886482 -6 27 C-6.33 27 -6.66 27 -7 27 C-7.33 25.35 -7.66 23.7 -8 22 C-8.99 22.99 -9.98 23.98 -11 25 C-10.48201088 20.856087 -8.94576361 17.69837718 -7.04296875 14.05078125 C-6.08295036 12.16310464 -5.24344397 10.2697925 -4.4375 8.3125 C-3.1549888 5.35714811 -1.72663198 2.71327882 0 0 Z " fill="#21221F" transform="translate(19,217)"/>
<path d="M0 0 C5.44793793 2.72396897 6.37836213 5.52381296 8.2421875 11.0859375 C8.9275887 13.72155241 9.23542919 16.04232629 9.375 18.75 C9.68464545 23.22001001 11.51917566 25.09974622 14.55859375 28.234375 C17.04447014 31.27940515 17.47696929 34.14264851 18 38 C17.34 38.66 16.68 39.32 16 40 C15.82984375 39.33613281 15.6596875 38.67226563 15.484375 37.98828125 C14.07616579 32.85730622 12.86062428 28.86062428 9 25 C8.34 24.67 7.68 24.34 7 24 C6.62564792 21.59047988 6.34102567 19.23704344 6.125 16.8125 C5.49746271 10.00972878 3.85771708 5.85771708 -1 1 C-0.67 0.67 -0.34 0.34 0 0 Z " fill="#062A15" transform="translate(271,245)"/>
<path d="M0 0 C1.11375 0.185625 1.11375 0.185625 2.25 0.375 C1.65722419 5.11720651 -0.18477195 9.36793688 -2.75 13.375 C-3.74 14.035 -4.73 14.695 -5.75 15.375 C-7.3047669 12.26546621 -7.03644437 9.81233239 -6.75 6.375 C-3.88020372 0.52911869 -3.88020372 0.52911869 0 0 Z " fill="#FFFFFF" transform="translate(164.75,86.625)"/>
<path d="M0 0 C2.58880287 1.64831999 4.70366083 3.46114038 6.8125 5.6875 C6.4825 6.3475 6.1525 7.0075 5.8125 7.6875 C4.38020833 6.45052083 2.94791667 5.21354167 1.515625 3.9765625 C-4.65497987 -0.69384944 -11.79724371 0.16288304 -19.1875 0.6875 C-22.42216599 1.41995709 -25.11872025 2.39538221 -28.1875 3.6875 C-28.8475 3.0275 -29.5075 2.3675 -30.1875 1.6875 C-20.61947104 -2.6864561 -9.74471678 -5.22887242 0 0 Z " fill="#2C753E" transform="translate(181.1875,80.3125)"/>
<path d="M0 0 C0.66 0 1.32 0 2 0 C2.24511382 4.91759604 1.34512067 9.18525495 0 13.875 C-0.19078125 14.56335938 -0.3815625 15.25171875 -0.578125 15.9609375 C-1.04523728 17.64254171 -1.5216642 19.32155385 -2 21 C1.3 21 4.6 21 8 21 C8 21.33 8 21.66 8 22 C6.20841511 22.02696365 4.41671527 22.04637917 2.625 22.0625 C1.62726563 22.07410156 0.62953125 22.08570313 -0.3984375 22.09765625 C-3 22 -3 22 -5 21 C-4.54655971 18.6239729 -4.08740741 16.24928419 -3.625 13.875 C-3.49867188 13.20984375 -3.37234375 12.5446875 -3.2421875 11.859375 C-2.4425726 7.781339 -1.40130515 3.91146915 0 0 Z " fill="#08110B" transform="translate(164,423)"/>
<path d="M0 0 C0.99 0 1.98 0 3 0 C2.7834375 1.29164063 2.7834375 1.29164063 2.5625 2.609375 C2.20151083 4.78533747 1.84678936 6.96235435 1.5 9.140625 C1.335 10.16671875 1.17 11.1928125 1 12.25 C0.835 13.28640625 0.67 14.3228125 0.5 15.390625 C0 18 0 18 -1 20 C-1.66 20 -2.32 20 -3 20 C-3.29359411 13.54092963 -2.36433656 7.31379109 -1 1 C-0.67 0.67 -0.34 0.34 0 0 Z " fill="#071009" transform="translate(358,419)"/>
<path d="M0 0 C0.33 0.66 0.66 1.32 1 2 C1.66 2 2.32 2 3 2 C2.01 7.28 1.02 12.56 0 18 C-0.66 18 -1.32 18 -2 18 C-2.33 18.66 -2.66 19.32 -3 20 C-2.67 15.38 -2.34 10.76 -2 6 C-1.34 6 -0.68 6 0 6 C0 4.02 0 2.04 0 0 Z " fill="#08110A" transform="translate(258,419)"/>
<path d="M0 0 C0.58007812 0.32355469 1.16015625 0.64710938 1.7578125 0.98046875 C0.54544922 1.01914062 0.54544922 1.01914062 -0.69140625 1.05859375 C-8.82433728 1.33569115 -8.82433728 1.33569115 -15.2421875 5.98046875 C-14.58633561 9.59039254 -14.58633561 9.59039254 -13.2421875 12.98046875 C-15.1796875 12.29296875 -15.1796875 12.29296875 -17.2421875 10.98046875 C-18.239434 8.27365681 -18.41834114 6.64593807 -17.6796875 3.85546875 C-13.5722649 -1.50203899 -6.01792584 -2.73637394 0 0 Z " fill="#1C6530" transform="translate(527.2421875,388.01953125)"/>
<path d="M0 0 C0.33 0 0.66 0 1 0 C3.05882353 26.91176471 3.05882353 26.91176471 -1 33 C-2.35326095 30.29347809 -1.61986451 28.93922337 -1 26 C-0.85708812 23.94366635 -0.75463062 21.88428808 -0.68359375 19.82421875 C-0.64169922 18.66728516 -0.59980469 17.51035156 -0.55664062 16.31835938 C-0.51732422 15.12017578 -0.47800781 13.92199219 -0.4375 12.6875 C-0.39431641 11.46998047 -0.35113281 10.25246094 -0.30664062 8.99804688 C-0.20078504 5.9988053 -0.09870274 2.99948409 0 0 Z " fill="#FFFFFF" transform="translate(295,322)"/>
<path d="M0 0 C1.53760842 3.07521683 0.36599236 5.34675118 -0.4375 8.625 C-0.72496094 9.81351562 -1.01242187 11.00203125 -1.30859375 12.2265625 C-1.65083984 13.59941406 -1.65083984 13.59941406 -2 15 C0.64 15 3.28 15 6 15 C6 15.33 6 15.66 6 16 C3.03 16 0.06 16 -3 16 C-3.33 15.34 -3.66 14.68 -4 14 C-4.99 14.495 -4.99 14.495 -6 15 C-5.57388649 13.24719267 -5.13360733 11.49782565 -4.6875 9.75 C-4.44386719 8.77546875 -4.20023437 7.8009375 -3.94921875 6.796875 C-3.00347644 4.01024335 -1.89291287 2.22695632 0 0 Z " fill="#122D19" transform="translate(410,429)"/>
<path d="M0 0 C2 2 2 2 3.125 4.5625 C6.58950654 10.91409532 11.88323803 15.9404725 17 21 C10.15809896 18.7274251 4.24740756 12.97643571 0.9375 6.5625 C0 4 0 4 0 2 C-0.66 1.67 -1.32 1.34 -2 1 C-1.34 0.67 -0.68 0.34 0 0 Z " fill="#112416" transform="translate(69,148)"/>
<path d="M0 0 C3.3 0 6.6 0 10 0 C10 1.32 10 2.64 10 4 C6.7 4 3.4 4 0 4 C0 2.68 0 1.36 0 0 Z " fill="#25AB4A" transform="translate(281,413)"/>
<path d="M0 0 C3.3 0 6.6 0 10 0 C10 1.32 10 2.64 10 4 C6.7 4 3.4 4 0 4 C0 2.68 0 1.36 0 0 Z " fill="#24AB4A" transform="translate(236,413)"/>
<path d="M0 0 C0.66 0.33 1.32 0.66 2 1 C1.34 1.66 0.68 2.32 0 3 C0.66 3.66 1.32 4.32 2 5 C0.989375 5.4125 -0.02125 5.825 -1.0625 6.25 C-4.89604911 7.88512605 -8.4152988 9.87844214 -12 12 C-10.47940093 8.11985064 -8.13921469 6.26093438 -4.875 3.75 C-3.96492188 3.04359375 -3.05484375 2.3371875 -2.1171875 1.609375 C-1.41851562 1.07828125 -0.71984375 0.5471875 0 0 Z " fill="#2E8F46" transform="translate(94,114)"/>
<path d="M0 0 C4.99998395 2.14285026 7.76417154 4.99090585 9.8125 10 C10.99936541 13.08464513 11.03272668 14.8526425 10 18 C9.67 16.02 9.34 14.04 9 12 C8.34 12 7.68 12 7 12 C5.23537317 8.91190305 5 7.76687864 5 4 C4.360625 3.71125 3.72125 3.4225 3.0625 3.125 C1 2 1 2 0 0 Z " fill="#2E3E2F" transform="translate(183,85)"/>
<path d="M0 0 C2.97 0 5.94 0 9 0 C9 1.32 9 2.64 9 4 C6.03 4 3.06 4 0 4 C0 2.68 0 1.36 0 0 Z " fill="#24AA4A" transform="translate(142,413)"/>
<path d="M0 0 C0.66 0 1.32 0 2 0 C2.15855469 0.58007812 2.31710938 1.16015625 2.48046875 1.7578125 C4.57814184 8.78096109 7.67353585 12.95387607 13 18 C6.95186377 16.27196108 4.19170995 12.05467233 1.1875 6.875 C0 4 0 4 0 0 Z " fill="#374839" transform="translate(148,100)"/>
<path d="M0 0 C2.65480782 2.65480782 3.40063201 5.29112771 4.6875 8.8125 C5.14511719 10.03582031 5.60273437 11.25914063 6.07421875 12.51953125 C6.98567703 15.94615288 7.04648957 17.67026045 6 21 C5.67 21 5.34 21 5 21 C4.7525 19.72125 4.505 18.4425 4.25 17.125 C3.24929047 12.51589262 1.6132882 8.37064015 -0.29296875 4.06640625 C-0.52628906 3.38449219 -0.75960937 2.70257813 -1 2 C-0.67 1.34 -0.34 0.68 0 0 Z " fill="#237539" transform="translate(118,76)"/>
<path d="M0 0 C7.39767406 -0.5074624 13.26680838 -0.8170323 19.51171875 3.515625 C21.197088 5.19657071 22.05751309 6.82717302 23 9 C22.54109375 8.66226563 22.0821875 8.32453125 21.609375 7.9765625 C20.68898437 7.30753906 20.68898437 7.30753906 19.75 6.625 C19.14671875 6.18414062 18.5434375 5.74328125 17.921875 5.2890625 C13.79928315 2.52390943 10.74741185 1.70091816 5.75 1.375 C4.67234375 1.30023438 3.5946875 1.22546875 2.484375 1.1484375 C1.25460938 1.07496094 1.25460938 1.07496094 0 1 C0 0.67 0 0.34 0 0 Z " fill="#3B6643" transform="translate(165,79)"/>
<path d="M0 0 C2.64 0 5.28 0 8 0 C8 1.32 8 2.64 8 4 C5.36 4 2.72 4 0 4 C0 2.68 0 1.36 0 0 Z " fill="#25AA4A" transform="translate(297,413)"/>
<path d="M0 0 C3.63 0 7.26 0 11 0 C11 1.32 11 2.64 11 4 C11.66 4.33 12.32 4.66 13 5 C11.68 5.33 10.36 5.66 9 6 C9 4.35 9 2.7 9 1 C6.36 1 3.72 1 1 1 C1 2.65 1 4.3 1 6 C0.67 6 0.34 6 0 6 C0 4.02 0 2.04 0 0 Z " fill="#1B6B30" transform="translate(448,330)"/>
<path d="M0 0 C-5.59116022 3.8121547 -5.59116022 3.8121547 -8.3125 5.0625 C-10.35897871 5.95072841 -10.35897871 5.95072841 -11 9 C-10.52153935 4.69385411 -9.34073619 2.75119451 -6 0 C-3 -1 -3 -1 0 0 Z " fill="#1A602D" transform="translate(565,413)"/>
<path d="M0 0 C0.33 1.32 0.66 2.64 1 4 C0.01 4.33 -0.98 4.66 -2 5 C-3.00642948 6.32848691 -4.00692179 7.66150329 -5 9 C-5.66 9 -6.32 9 -7 9 C-5.44499019 5.18315774 -2.96404505 2.80804268 0 0 Z " fill="#337E44" transform="translate(21,213)"/>
<path d="M0 0 C0.33 0 0.66 0 1 0 C1 4.29 1 8.58 1 13 C0.67 13 0.34 13 0 13 C-0.33 11.02 -0.66 9.04 -1 7 C-1.99 7.495 -1.99 7.495 -3 8 C-1.125 1.125 -1.125 1.125 0 0 Z " fill="#122A18" transform="translate(17,431)"/>
<path d="M0 0 C2.64 0 5.28 0 8 0 C8 1.32 8 2.64 8 4 C6.68 4 5.36 4 4 4 C4 3.34 4 2.68 4 2 C2.68 2 1.36 2 0 2 C0 1.34 0 0.68 0 0 Z " fill="#185629" transform="translate(180,440)"/>
<path d="M0 0 C0.33 0.99 0.66 1.98 1 3 C0.67 3.66 0.34 4.32 0 5 C3.3 5 6.6 5 10 5 C10 5.33 10 5.66 10 6 C8.20841511 6.02696365 6.41671527 6.04637917 4.625 6.0625 C3.62726563 6.07410156 2.62953125 6.08570313 1.6015625 6.09765625 C-1 6 -1 6 -3 5 C-1.125 1.125 -1.125 1.125 0 0 Z " fill="#112215" transform="translate(162,439)"/>
<path d="M0 0 C2.125 0.375 2.125 0.375 4 1 C3.38125 1.5775 2.7625 2.155 2.125 2.75 C0.18652947 4.80249821 -0.90014249 6.43366582 -2 9 C-2.66 9 -3.32 9 -4 9 C-2.25 2.25 -2.25 2.25 0 0 Z " fill="#25843E" transform="translate(149,31)"/>
<path d="M0 0 C0.97533063 2.63339271 1.019574 3.92348347 0.3125 6.6875 C-1 9 -1 9 -3.125 9.8125 C-3.74375 9.874375 -4.3625 9.93625 -5 10 C-3.66511872 6.40608886 -2.03977277 3.24509304 0 0 Z " fill="#2A2D29" transform="translate(19,217)"/>
<path d="M0 0 C0.66 0 1.32 0 2 0 C0.44499019 3.81684226 -2.03595495 6.19195732 -5 9 C-4.42676569 5.13066838 -2.61046448 2.84777943 0 0 Z " fill="#219644" transform="translate(299,369)"/>
<path d="M0 0 C0.99 0 1.98 0 3 0 C3 1.98 3 3.96 3 6 C2.01 6.33 1.02 6.66 0 7 C0 4.69 0 2.38 0 0 Z " fill="#070D08" transform="translate(65,432)"/>
<path d="M0 0 C0.99 0 1.98 0 3 0 C2.01 3.3 1.02 6.6 0 10 C-0.33 10 -0.66 10 -1 10 C-1.125 3.375 -1.125 3.375 0 0 Z " fill="#327140" transform="translate(1,251)"/>
<path d="M0 0 C1 3 1 3 0.22265625 5.04296875 C-0.16019531 5.75066406 -0.54304687 6.45835937 -0.9375 7.1875 C-1.31777344 7.90292969 -1.69804687 8.61835938 -2.08984375 9.35546875 C-2.54037109 10.16951172 -2.54037109 10.16951172 -3 11 C-4.3968009 6.80959731 -2.86445675 4.87233324 -1 1 C-0.67 0.67 -0.34 0.34 0 0 Z " fill="#110F0F" transform="translate(16,225)"/>
<path d="M0 0 C0.99 0 1.98 0 3 0 C3 1.98 3 3.96 3 6 C2.01 6 1.02 6 0 6 C0 4.02 0 2.04 0 0 Z " fill="#259142" transform="translate(365,433)"/>
<path d="M0 0 C1.98 0 3.96 0 6 0 C6 0.99 6 1.98 6 3 C4.02 3 2.04 3 0 3 C0 2.01 0 1.02 0 0 Z " fill="#22B14C" transform="translate(270,430)"/>
<path d="M0 0 C0.99 0 1.98 0 3 0 C2.67 1.98 2.34 3.96 2 6 C1.01 6 0.02 6 -1 6 C-1.042721 4.33388095 -1.04063832 2.66617115 -1 1 C-0.67 0.67 -0.34 0.34 0 0 Z " fill="#0F2E18" transform="translate(358,419)"/>
<path d="M0 0 C0.12375 0.639375 0.2475 1.27875 0.375 1.9375 C0.58125 2.618125 0.7875 3.29875 1 4 C1.66 4.33 2.32 4.66 3 5 C2.01 6.485 2.01 6.485 1 8 C0.34 8 -0.32 8 -1 8 C-0.67 5.36 -0.34 2.72 0 0 Z " fill="#22843D" transform="translate(646,405)"/>
<path d="M0 0 C-2.64 1.65 -5.28 3.3 -8 5 C-7 1 -7 1 -5.125 -0.3125 C-3 -1 -3 -1 0 0 Z " fill="#209744" transform="translate(289,384)"/>
</svg>
